# xmcd CD database file
#
# Track frame offsets:
#	150
#	28542
#	41171
#	55426
#	69917
#	99131
#	122547
#	138286
#	165688
#
# Disc length: 2603 seconds
#
# Revision: 0
# Processed by: cddbd v1.5.2PL0 Copyright (c) Steve Scherf et al.
# Submitted via: CDex 1.70beta3
#
DISCID=700a2909
DTITLE=Dustin O'halloran - Lumiere
DYEAR=2011
DGENRE=Jazz
TTITLE0=A Great Divide
TTITLE1=Opus 44
TTITLE2=We Move Lightly
TTITLE3=Quartet N.2
TTITLE4=Opus 43
TTITLE5=Quintette N.1
TTITLE6=Fragile N.4
TTITLE7=Opus 55
TTITLE8=Snow+Light
EXTD=YEAR: 2011
EXTT0=
EXTT1=
EXTT2=
EXTT3=
EXTT4=
EXTT5=
EXTT6=
EXTT7=
EXTT8=
PLAYORDER=
